 <svg version="1.0" xmlns="http://www.w3.org/2000/svg" width="700.000000pt" height="700.000000pt" viewBox="0 0 700.000000 700.000000" preserveAspectRatio="xMidYMid meet">
<metadata>
Created by potrace 1.12, written by Peter Selinger 2001-2015
</metadata>
<g transform="translate(0.000000,700.000000) scale(0.100000,-0.100000)" fill="#000000" stroke="none">
<path d="M198 6643 c-32 -33 -38 -46 -38 -83 l0 -44 353 -354 c1224 -1230
2267 -2268 2299 -2289 21 -14 46 -38 55 -54 18 -28 611 -627 1189 -1201 170
-168 433 -431 585 -585 152 -153 411 -411 575 -574 164 -162 426 -423 580
-580 389 -393 804 -802 829 -816 28 -17 97 -16 123 3 45 31 65 101 41 147 -12
23 -344 360 -813 825 -153 153 -439 438 -635 636 -196 197 -423 424 -504 505
-147 144 -1953 1951 -1992 1992 -11 12 -580 579 -1265 1262 l-1245 1240 -50 4
c-47 4 -52 3 -87 -34z"></path>
<path d="M6397 5981 c-36 -10 -37 -22 -37 -584 l0 -549 -29 -29 -29 -29 -669
0 c-367 0 -673 4 -679 8 -32 21 -34 51 -34 604 0 418 -3 557 -12 566 -8 8 -56
12 -149 12 -112 0 -141 -3 -153 -16 -14 -14 -16 -151 -16 -1359 0 -1319 0
-1344 19 -1355 23 -12 280 -13 299 -1 11 6 13 121 12 597 0 413 3 599 11 622
l11 32 616 1 c741 2 762 2 782 -17 13 -13 15 -97 18 -616 2 -419 6 -606 13
-615 14 -16 260 -19 290 -3 19 11 20 30 19 1341 -1 940 -4 1338 -12 1355 -7
15 -22 25 -42 29 -40 6 -212 11 -229 6z"></path>
<path d="M137 2917 c-17 -11 -18 -94 -17 -1352 0 -1244 1 -1341 17 -1352 11
-9 56 -13 134 -13 96 0 120 3 138 17 l21 18 3 1060 c1 583 6 1068 11 1078 4 9
14 17 21 17 27 0 45 -34 125 -235 15 -38 41 -99 58 -135 16 -36 56 -126 87
-200 31 -74 69 -162 85 -195 72 -154 90 -194 90 -202 0 -4 12 -30 25 -58 14
-27 25 -56 25 -63 0 -7 14 -38 30 -69 17 -31 30 -62 30 -69 0 -8 11 -35 25
-61 14 -27 39 -82 55 -123 17 -41 39 -93 50 -115 55 -117 80 -173 80 -183 0
-6 11 -28 25 -48 14 -20 25 -43 25 -50 0 -13 14 -47 76 -179 12 -27 37 -80 54
-117 17 -37 39 -72 50 -78 25 -13 113 -13 143 1 18 8 39 44 80 137 30 70 58
138 62 152 4 14 18 45 31 70 13 25 37 79 54 120 35 84 131 303 160 365 34 72
68 149 88 200 68 171 113 279 121 289 5 6 26 49 46 96 20 47 48 110 61 140 55
118 73 157 103 220 17 36 31 71 31 78 0 7 9 30 19 50 59 111 151 309 151 324
0 23 20 34 21 11 0 -10 0 -516 -1 -1125 l-1 -1107 25 -16 c21 -14 46 -16 144
-13 82 2 124 7 135 17 16 12 17 120 17 1346 0 1226 -1 1334 -17 1346 -12 10
-61 15 -187 17 -94 2 -185 1 -202 -2 -28 -6 -36 -18 -92 -131 -34 -68 -62
-130 -62 -137 0 -7 -11 -31 -25 -53 -13 -22 -25 -46 -25 -54 0 -12 -21 -58
-125 -276 -13 -27 -27 -61 -31 -75 -3 -14 -14 -43 -24 -65 -10 -22 -32 -74
-49 -115 -18 -41 -42 -97 -55 -125 -33 -69 -136 -312 -136 -321 0 -3 -13 -34
-29 -68 -16 -33 -55 -119 -86 -191 -31 -71 -63 -142 -70 -156 -8 -14 -35 -82
-61 -150 -68 -182 -101 -249 -125 -249 -19 0 -79 79 -79 104 0 6 -7 25 -16 41
-16 31 -84 200 -84 210 0 3 -21 48 -46 101 -25 53 -52 115 -60 138 -8 22 -21
50 -29 62 -7 11 -19 41 -25 65 -7 24 -18 51 -26 59 -7 9 -20 35 -28 58 -9 24
-22 53 -31 65 -8 12 -15 28 -15 36 0 8 -22 61 -50 118 -27 57 -50 108 -50 112
0 5 -13 37 -29 72 -15 35 -41 93 -56 129 -15 36 -38 88 -50 115 -13 28 -35 79
-50 115 -15 36 -38 88 -51 115 -33 73 -60 136 -111 260 -64 158 -71 171 -99
184 -36 16 -404 15 -427 -2z"></path>
</g>
</svg>