 <svg version="1.0" xmlns="http://www.w3.org/2000/svg" width="700.000000pt" height="696.000000pt" viewBox="0 0 700.000000 696.000000" preserveAspectRatio="xMidYMid meet">
<metadata>
Created by potrace 1.12, written by Peter Selinger 2001-2015
</metadata>
<g transform="translate(0.000000,696.000000) scale(0.100000,-0.100000)" fill="#000000" stroke="none">
<path d="M112 6662 c-26 -23 -32 -36 -32 -68 0 -39 35 -74 3199 -3236 3176
-3176 3199 -3198 3238 -3198 52 0 93 40 93 92 0 35 -125 161 -3202 3237 -2901
2900 -3205 3201 -3233 3201 -20 0 -43 -10 -63 -28z"></path>
<path d="M3946 6384 c-14 -14 -16 -154 -16 -1394 0 -1247 1 -1378 16 -1384 9
-3 78 -6 154 -6 105 0 140 3 149 14 9 10 11 309 10 1170 -1 836 1 1160 9 1168
13 13 17 6 31 -67 11 -59 36 -134 62 -190 10 -22 30 -67 45 -100 14 -33 39
-87 55 -119 16 -33 29 -65 29 -72 0 -7 6 -25 14 -41 8 -15 27 -55 41 -88 43
-95 61 -137 84 -186 12 -25 21 -49 21 -52 0 -5 46 -108 90 -202 10 -22 37 -85
60 -140 23 -55 50 -118 60 -140 32 -74 48 -110 75 -170 14 -33 32 -72 40 -87
8 -14 15 -33 15 -41 0 -8 9 -26 20 -40 11 -14 20 -33 20 -42 0 -9 9 -34 20
-56 11 -21 29 -57 40 -78 11 -22 20 -49 20 -60 0 -11 4 -22 8 -25 5 -3 21 -36
37 -73 32 -78 87 -203 115 -263 5 -11 28 -16 88 -18 82 -3 122 8 122 32 0 7
11 34 25 60 14 26 25 53 25 61 0 7 7 26 15 42 8 15 26 55 40 88 15 33 32 74
40 90 7 17 32 75 55 130 24 55 57 132 75 170 18 39 36 81 40 95 4 14 13 32 20
40 7 8 16 29 20 47 3 17 13 37 21 44 8 6 14 18 14 27 0 8 9 33 19 56 10 23 38
86 61 141 23 55 50 117 61 137 10 20 19 42 19 47 0 6 25 63 55 126 30 64 55
121 55 127 0 6 8 27 18 47 28 54 57 119 82 181 22 55 39 94 79 181 12 25 21
53 21 61 0 8 5 19 11 25 15 15 69 150 69 172 0 10 9 29 19 43 11 13 23 41 26
62 5 24 11 34 17 28 7 -7 6 -91 -1 -244 -13 -275 -16 -2097 -3 -2110 5 -5 80
-7 168 -6 l159 3 3 1384 c1 1014 -1 1387 -9 1397 -9 11 -52 14 -194 14 -239 0
-238 0 -268 -64 -54 -114 -67 -143 -67 -150 0 -7 -14 -38 -87 -196 -19 -41
-43 -93 -54 -116 -10 -23 -19 -45 -19 -49 0 -5 -9 -28 -20 -52 -11 -24 -29
-63 -40 -88 -11 -25 -29 -64 -40 -88 -11 -24 -20 -46 -20 -50 0 -4 -14 -37
-31 -74 -17 -38 -39 -86 -49 -108 -10 -22 -30 -66 -44 -97 -14 -31 -26 -60
-26 -63 0 -4 -16 -41 -36 -83 -60 -129 -70 -152 -134 -302 -34 -80 -70 -161
-81 -181 -10 -20 -19 -41 -19 -47 0 -6 -18 -49 -40 -96 -22 -47 -40 -89 -40
-94 0 -11 -36 -97 -56 -134 -7 -14 -14 -37 -14 -50 0 -32 -27 -68 -50 -68 -19
0 -23 8 -36 70 -3 19 -15 51 -25 70 -10 19 -30 64 -43 100 -14 36 -32 79 -40
95 -9 17 -16 35 -16 42 0 6 -7 26 -16 45 -9 18 -25 49 -34 68 -10 19 -21 49
-24 67 -4 17 -14 37 -22 44 -8 6 -14 18 -14 26 0 8 -9 31 -19 51 -11 20 -29
62 -41 92 -12 30 -31 75 -42 100 -12 25 -27 59 -33 75 -7 17 -22 50 -33 75
-11 25 -23 55 -27 68 -4 13 -21 54 -39 90 -18 37 -43 94 -56 127 -13 33 -37
92 -55 130 -18 39 -45 99 -60 135 -15 36 -36 85 -47 110 -11 25 -25 59 -33 75
-8 17 -24 55 -35 85 -12 30 -31 71 -41 91 -10 20 -19 42 -19 47 0 6 -18 48
-40 94 -22 46 -40 90 -40 98 0 9 -13 30 -29 48 l-30 32 -210 0 c-177 0 -212
-2 -225 -16z"></path>
<path d="M358 3488 c-17 -12 -18 -93 -18 -1391 -1 -758 2 -1382 5 -1387 8 -12
305 -13 323 -1 11 7 13 122 12 621 0 450 2 616 11 626 10 12 126 14 716 14
625 0 704 -2 710 -15 3 -9 6 -294 7 -633 l1 -617 159 -3 c88 -1 163 1 168 6
13 13 10 2764 -2 2776 -6 6 -74 12 -154 14 -119 4 -145 2 -158 -12 -14 -13
-16 -83 -16 -600 0 -322 -3 -590 -7 -596 -4 -7 -243 -10 -709 -10 -586 0 -705
2 -715 14 -8 10 -11 173 -11 596 1 410 -2 586 -10 594 -17 17 -291 21 -312 4z"></path>
</g>
</svg>